<svg width="105" height="99" viewBox="0 0 105 99" fill="none" xmlns="http://www.w3.org/2000/svg">
<g clip-path="url(#clip0_2035_584)">
<path d="M18.8082 18.5185L0.984375 0.984375V81.1797L18.8082 98.7139H104.728V18.5185H18.8082Z" fill="#F1F1E3"/>
<path d="M31.0312 34.6875H37.1974C38.6808 34.6875 39.8171 35.0542 40.531 35.6894C41.2808 36.364 41.628 37.1924 41.628 38.2696C41.628 39.6743 40.7602 40.5813 39.47 41.0234V41.0823C40.9927 41.5243 42.0307 42.7981 42.0307 44.4942C42.0307 45.7843 41.628 46.6716 40.8191 47.3658C40.0299 48.0599 38.8151 48.4627 37.3513 48.4627H31.0312V34.6875ZM36.8503 40.2375C38.0652 40.2375 38.8936 39.658 38.8936 38.5807C38.8936 37.5591 38.1405 36.9632 36.9092 36.9632H33.8278V40.2375H36.8535H36.8503ZM33.8245 46.151H37.0402C38.3893 46.151 39.1982 45.4012 39.1982 44.2813C39.1982 42.9716 38.2354 42.2971 36.9649 42.2971H33.8245V46.151Z" fill="#221F20"/>
<path d="M42.6934 43.5122C42.6934 40.5849 44.6778 38.3125 47.5693 38.3125C50.749 38.3125 52.4419 40.7388 52.4419 44.2653H45.2738C45.467 45.7878 46.3151 46.7309 47.7985 46.7309C48.8202 46.7309 49.4162 46.2692 49.7076 45.5193H52.288C51.9213 47.2711 50.3625 48.7544 47.8182 48.7544C44.5435 48.7544 42.6934 46.4624 42.6934 43.5154V43.5122ZM45.3131 42.4513H49.7043C49.6258 41.2005 48.8005 40.3328 47.6053 40.3328C46.2169 40.3328 45.5423 41.1612 45.3131 42.4513Z" fill="#221F20"/>
<path d="M52.4395 38.5802H53.8082V35.499H56.3723V38.5802H58.0685V40.3156H56.3723V45.5545C56.3723 46.288 56.7751 46.5369 57.3547 46.5369C57.6821 46.5369 58.1242 46.5172 58.1242 46.5172V48.4425C58.1242 48.4425 57.525 48.4818 56.4869 48.4818C55.2163 48.4818 53.8082 47.9808 53.8082 46.1112V40.3123H52.4395V38.5769V38.5802Z" fill="#221F20"/>
<path d="M58.5352 38.5802H59.9039V35.499H62.468V38.5802H64.1642V40.3156H62.468V45.5545C62.468 46.288 62.8708 46.5369 63.4504 46.5369C63.7778 46.5369 64.2199 46.5172 64.2199 46.5172V48.4425C64.2199 48.4425 63.6207 48.4818 62.5826 48.4818C61.312 48.4818 59.9039 47.9808 59.9039 46.1112V40.3123H58.5352V38.5769V38.5802Z" fill="#221F20"/>
<path d="M64.3965 43.5122C64.3965 40.5849 66.3809 38.3125 69.2724 38.3125C72.4521 38.3125 74.1451 40.7388 74.1451 44.2653H66.9769C67.1701 45.7878 68.0182 46.7309 69.5016 46.7309C70.5233 46.7309 71.1193 46.2692 71.4108 45.5193H73.9912C73.6244 47.2711 72.0657 48.7544 69.5213 48.7544C66.2467 48.7544 64.3965 46.4624 64.3965 43.5154V43.5122ZM67.0195 42.4513H71.4108C71.3322 41.2005 70.507 40.3328 69.3117 40.3328C67.9233 40.3328 67.2487 41.1612 67.0195 42.4513Z" fill="#221F20"/>
<path d="M77.6341 40.159H77.6931C78.2923 39.0425 78.9636 38.4629 80.1196 38.4629C80.4077 38.4629 80.5813 38.4825 80.7352 38.5415V40.8335H80.6763C78.9636 40.66 77.7291 41.567 77.7291 43.6462V48.4628H75.1094V38.5808H77.6341V40.159Z" fill="#221F20"/>
<path d="M31.0333 51.3799H34.9628L36.9079 58.2953C37.3893 60.0307 37.7757 62.0117 37.7757 62.0117H37.815C37.815 62.0117 38.1818 60.0274 38.6632 58.2953L40.6083 51.3799H44.5968V65.1551H41.9967V57.2573C41.9967 56.1408 42.1113 54.4054 42.1113 54.4054H42.072C42.072 54.4054 41.7642 56.0229 41.4728 57.0249L39.102 65.1551H36.4233L34.1114 57.0249C33.8232 56.0229 33.5122 54.4054 33.5122 54.4054H33.4729C33.4729 54.4054 33.5875 56.1408 33.5875 57.2573V65.1551H31.0234V51.3799H31.0333Z" fill="#221F20"/>
<path d="M45.8203 60.201C45.8203 57.2737 47.8047 54.998 50.6962 54.998C53.8759 54.998 55.5689 57.4243 55.5689 60.9508H48.4007C48.5939 62.4734 49.4421 63.4164 50.9255 63.4164C51.9471 63.4164 52.5431 62.9547 52.8346 62.2016H55.415C55.0482 63.9534 53.4895 65.4367 50.9451 65.4367C47.6705 65.4367 45.8203 63.1446 45.8203 60.1977V60.201ZM48.44 59.1434H52.8313C52.7527 57.8926 51.9275 57.0249 50.7323 57.0249C49.3438 57.0249 48.6692 57.8533 48.44 59.1434Z" fill="#221F20"/>
<path d="M56.0273 60.201C56.0273 57.2737 58.0118 54.998 60.9033 54.998C64.0829 54.998 65.7759 57.4243 65.7759 60.9508H58.6078C58.801 62.4734 59.6491 63.4164 61.1325 63.4164C62.1542 63.4164 62.7502 62.9547 63.0416 62.2016H65.622C65.2553 63.9534 63.6965 65.4367 61.1521 65.4367C57.8775 65.4367 56.0273 63.1446 56.0273 60.1977V60.201ZM58.647 59.1434H63.0383C62.9597 57.8926 62.1345 57.0249 60.9393 57.0249C59.5508 57.0249 58.8763 57.8533 58.647 59.1434Z" fill="#221F20"/>
<path d="M65.7734 55.2696H67.1422V52.1885H69.7063V55.2696H71.4025V57.0018H69.7063V62.2407C69.7063 62.9742 70.109 63.223 70.6887 63.223C71.0161 63.223 71.4582 63.2034 71.4582 63.2034V65.1287C71.4582 65.1287 70.8589 65.168 69.8209 65.168C68.5503 65.168 67.1422 64.667 67.1422 62.7974V56.9985H65.7734V55.2664V55.2696Z" fill="#221F20"/>
<path d="M72.4043 51.3799H75.024V53.7309H72.4043V51.3799ZM72.4043 55.2698H75.024V65.1518H72.4043V55.2698Z" fill="#221F20"/>
<path d="M79.0119 56.6185H79.0709C79.7455 55.5576 80.6492 55.001 81.9984 55.001C84.0418 55.001 85.4106 56.5432 85.4106 58.701V65.1547H82.7909V59.0874C82.7909 58.0265 82.1752 57.2766 81.075 57.2766C79.919 57.2766 79.0709 58.2 79.0709 59.549V65.1547H76.4512V55.2727H79.0119V56.6218V56.6185Z" fill="#221F20"/>
<path d="M86.4824 65.4396H89.0824C89.2953 66.0552 89.852 66.5398 91.0669 66.5398C92.5503 66.5398 93.2641 65.826 93.2641 64.4769V63.3997H93.2052C92.6289 64.0545 91.8757 64.5555 90.6248 64.5555C88.4275 64.5555 86.2695 62.8234 86.2695 59.8372C86.2695 56.851 88.0411 55.001 90.5462 55.001C91.7807 55.001 92.6845 55.4823 93.2838 56.3107H93.3231V55.2695H95.8478V64.4016C95.8478 65.79 95.4058 66.733 94.6722 67.4075C93.8438 68.177 92.5732 68.524 91.1094 68.524C88.4111 68.524 86.7542 67.3682 86.4857 65.4429L86.4824 65.4396ZM93.3984 59.7782C93.3984 58.3343 92.6289 57.0998 91.0472 57.0998C89.7177 57.0998 88.8336 58.1411 88.8336 59.7979C88.8336 61.4547 89.721 62.4567 91.0669 62.4567C92.7238 62.4567 93.3984 61.2452 93.3984 59.7782Z" fill="#221F20"/>
<path d="M31.0326 68.0658H37.3526C40.0116 68.0658 41.7832 69.608 41.7832 71.9C41.7832 73.5176 41.0333 74.752 39.2584 75.2333V75.2923C40.529 75.659 41.1839 76.3892 41.3575 78.0656C41.5507 80.0106 41.4721 81.4939 41.9535 81.7067V81.841H39.2748C38.9277 81.6871 38.8884 80.1448 38.7738 78.6616C38.6592 77.1586 37.8111 76.3106 36.0755 76.3106H33.8226V81.8377H31.0293V68.0625L31.0326 68.0658ZM33.8258 74.1561H36.7926C38.3154 74.1561 39.0652 73.3669 39.0652 72.2668C39.0652 71.1666 38.3514 70.3218 36.868 70.3218H33.8226V74.1561H33.8258Z" fill="#221F20"/>
<path d="M42.4551 76.9097C42.4551 73.9628 44.5541 71.6904 47.6192 71.6904C50.6842 71.6904 52.7833 73.9628 52.7833 76.9097C52.7833 79.8567 50.6842 82.1323 47.6192 82.1323C44.5541 82.1323 42.4551 79.8599 42.4551 76.9097ZM50.1243 76.9097C50.1243 74.9844 49.2172 73.6747 47.6192 73.6747C46.0212 73.6747 45.1141 74.9844 45.1141 76.9097C45.1141 78.8351 46.0015 80.1284 47.6192 80.1284C49.2368 80.1284 50.1243 78.8383 50.1243 76.9097Z" fill="#221F20"/>
<path d="M53.2402 76.9097C53.2402 73.9628 55.3393 71.6904 58.4043 71.6904C61.4694 71.6904 63.5684 73.9628 63.5684 76.9097C63.5684 79.8567 61.4694 82.1323 58.4043 82.1323C55.3393 82.1323 53.2402 79.8599 53.2402 76.9097ZM60.9094 76.9097C60.9094 74.9844 60.0024 73.6747 58.4043 73.6747C56.8063 73.6747 55.8992 74.9844 55.8992 76.9097C55.8992 78.8351 56.7867 80.1284 58.4043 80.1284C60.022 80.1284 60.9094 78.8383 60.9094 76.9097Z" fill="#221F20"/>
<path d="M64.5312 71.9589H67.056V73.2883H67.1149C67.6552 72.3846 68.618 71.6904 69.9868 71.6904C71.2377 71.6904 72.2397 72.3846 72.7211 73.4226H72.7604C73.435 72.3453 74.473 71.6904 75.7272 71.6904C77.8066 71.6904 78.9822 73.0395 78.9822 75.1973V81.8442H76.3625V75.6426C76.3625 74.526 75.8025 73.9465 74.8398 73.9465C73.7428 73.9465 73.0682 74.7945 73.0682 76.1043V81.8442H70.4485V75.6426C70.4485 74.526 69.8885 73.9465 68.9258 73.9465C67.8648 73.9465 67.1542 74.7945 67.1542 76.1043V81.8442H64.5345V71.9622L64.5312 71.9589Z" fill="#221F20"/>
<path d="M79.7943 78.6451H82.2208C82.3943 79.7813 83.2032 80.2823 84.3788 80.2823C85.5544 80.2823 86.1896 79.8403 86.1896 79.1461C86.1896 78.2031 84.9387 78.1049 83.5896 77.8364C81.818 77.4893 80.0825 77.008 80.0825 74.8502C80.0825 72.6924 81.854 71.6904 84.1103 71.6904C86.7103 71.6904 88.1577 72.9805 88.3476 74.9648H85.9768C85.8622 73.9039 85.1876 73.5208 84.071 73.5208C83.0493 73.5208 82.3747 73.9072 82.3747 74.6177C82.3747 75.4658 83.6846 75.5411 85.0894 75.8325C86.7463 76.1796 88.5768 76.6412 88.5768 78.9529C88.5768 80.9372 86.8806 82.1323 84.4148 82.1323C81.5429 82.1323 79.9449 80.744 79.791 78.6451H79.7943Z" fill="#221F20"/>
</g>
<defs>
<clipPath id="clip0_2035_584">
<rect width="103.744" height="97.7295" fill="white" transform="translate(0.984375 0.984375)"/>
</clipPath>
</defs>
</svg>
